<svg width="208" height="68" viewBox="0 0 208 68" fill="none" xmlns="http://www.w3.org/2000/svg">
<path d="M11.5135 62.5359L1.85621 35.7641C1.39066 34.4735 1.38148 33.0623 1.83022 31.7657L10.9078 5.53761C11.7442 3.12093 14.0205 1.5 16.5778 1.5H191.196C193.753 1.5 196.029 3.12093 196.866 5.53761L205.943 31.7657C206.392 33.0623 206.383 34.4735 205.917 35.7641L196.26 62.5359C195.402 64.9146 193.145 66.5 190.616 66.5H17.1575C14.6288 66.5 12.3715 64.9146 11.5135 62.5359Z" fill="#033330" stroke="#F9BC07" stroke-width="3"/>
<path d="M87.6247 35.584L80.9687 24.326H85.1807L89.5747 31.892L94.1247 24.326H98.3107L91.4987 35.584V42.5H87.6247V35.584ZM107.708 42.89C105.316 42.89 103.435 42.318 102.066 41.174C100.696 40.0127 100.012 38.392 100.012 36.312C100.012 34.2493 100.618 32.62 101.832 31.424C103.062 30.228 104.813 29.63 107.084 29.63C108.574 29.63 109.84 29.9073 110.88 30.462C111.92 31.0167 112.708 31.788 113.246 32.776C113.783 33.7467 114.052 34.8473 114.052 36.078V37.664H103.756C104.033 39.2587 105.524 40.056 108.228 40.056C109.025 40.056 109.848 39.9867 110.698 39.848C111.547 39.7093 112.284 39.5187 112.908 39.276V42.032C112.301 42.292 111.521 42.5 110.568 42.656C109.614 42.812 108.661 42.89 107.708 42.89ZM110.334 35.116C110.282 34.284 109.97 33.6427 109.398 33.192C108.826 32.724 108.037 32.49 107.032 32.49C106.044 32.49 105.264 32.724 104.692 33.192C104.12 33.66 103.808 34.3013 103.756 35.116H110.334ZM121.345 42.89C120.409 42.89 119.404 42.786 118.329 42.578C117.272 42.3873 116.44 42.11 115.833 41.746V38.678C116.526 39.094 117.358 39.432 118.329 39.692C119.3 39.952 120.201 40.082 121.033 40.082C121.744 40.082 122.264 40.0213 122.593 39.9C122.922 39.7787 123.087 39.5533 123.087 39.224C123.087 38.964 122.992 38.756 122.801 38.6C122.61 38.4267 122.316 38.2793 121.917 38.158C121.536 38.0193 120.894 37.82 119.993 37.56C118.936 37.248 118.104 36.936 117.497 36.624C116.908 36.2947 116.457 35.8873 116.145 35.402C115.85 34.9167 115.703 34.2927 115.703 33.53C115.703 32.23 116.214 31.2593 117.237 30.618C118.277 29.9593 119.681 29.63 121.449 29.63C122.316 29.63 123.208 29.7253 124.127 29.916C125.063 30.0893 125.782 30.3233 126.285 30.618V33.608C125.782 33.2787 125.124 33.01 124.309 32.802C123.512 32.594 122.732 32.49 121.969 32.49C121.258 32.49 120.704 32.5593 120.305 32.698C119.924 32.8367 119.733 33.0967 119.733 33.478C119.733 33.8073 119.915 34.0587 120.279 34.232C120.66 34.4053 121.362 34.622 122.385 34.882L122.905 35.012C123.997 35.3067 124.846 35.636 125.453 36C126.06 36.3467 126.484 36.7713 126.727 37.274C126.987 37.7593 127.117 38.3747 127.117 39.12C127.117 40.264 126.623 41.1827 125.635 41.876C124.647 42.552 123.217 42.89 121.345 42.89Z" fill="white"/>
</svg>
