<svg width="208" height="68" viewBox="0 0 208 68" fill="none" xmlns="http://www.w3.org/2000/svg">
<path d="M11.5135 62.5359L1.85621 35.7641C1.39066 34.4735 1.38148 33.0623 1.83022 31.7657L10.9078 5.53761C11.7442 3.12093 14.0205 1.5 16.5778 1.5H191.196C193.753 1.5 196.029 3.12093 196.866 5.53761L205.943 31.7657C206.392 33.0623 206.383 34.4735 205.917 35.7641L196.26 62.5359C195.402 64.9146 193.145 66.5 190.616 66.5H17.1575C14.6288 66.5 12.3715 64.9146 11.5135 62.5359Z" fill="#DC3B08" stroke="#F9BC07" stroke-width="3"/>
<path d="M86.9887 24.826H90.8367L98.4287 36.578V24.826H102.381V43H98.5587L90.9407 31.248V43H86.9887V24.826ZM112.086 43.39C110.578 43.39 109.252 43.1213 108.108 42.584C106.982 42.0293 106.106 41.258 105.482 40.27C104.876 39.2647 104.572 38.0947 104.572 36.76C104.572 35.46 104.876 34.3073 105.482 33.302C106.106 32.2967 106.982 31.5167 108.108 30.962C109.252 30.4073 110.578 30.13 112.086 30.13C113.577 30.13 114.886 30.4073 116.012 30.962C117.156 31.5167 118.032 32.2967 118.638 33.302C119.262 34.3073 119.574 35.46 119.574 36.76C119.574 38.0947 119.262 39.2647 118.638 40.27C118.032 41.258 117.165 42.0293 116.038 42.584C114.912 43.1213 113.594 43.39 112.086 43.39ZM112.086 40.322C113.144 40.322 113.984 40.0013 114.608 39.36C115.232 38.7013 115.544 37.8347 115.544 36.76C115.544 35.6507 115.232 34.784 114.608 34.16C114.002 33.5187 113.161 33.198 112.086 33.198C111.012 33.198 110.162 33.5187 109.538 34.16C108.914 34.784 108.602 35.6507 108.602 36.76C108.602 37.8347 108.914 38.7013 109.538 39.36C110.18 40.0013 111.029 40.322 112.086 40.322Z" fill="white"/>
</svg>
