<svg width="319" height="53" viewBox="0 0 319 53" fill="none" xmlns="http://www.w3.org/2000/svg">
<path d="M16.6121 49.0239L2.64364 29.7747C1.14382 27.7078 1.11656 24.9182 2.57571 22.8224L15.6308 4.07166C16.7526 2.46047 18.5916 1.5 20.5549 1.5H297.722C299.686 1.5 301.525 2.46047 302.647 4.07165L315.702 22.8224C317.161 24.9182 317.134 27.7078 315.634 29.7747L301.665 49.0239C300.537 50.5794 298.731 51.5 296.809 51.5H21.4682C19.5463 51.5 17.7408 50.5794 16.6121 49.0239Z" stroke="#CFFDED" stroke-width="3"/>
<path d="M135.991 16.826H148.601V20.128H139.943V24.34H146.313V27.512H139.943V31.698H148.601V35H135.991V16.826ZM154.69 28.552L149.698 22.52H154.092L156.874 25.9L159.682 22.52H164.076L159.058 28.552L164.414 35H160.072L156.874 31.178L153.702 35H149.334L154.69 28.552ZM168.77 20.596C168.163 20.596 167.652 20.3967 167.236 19.998C166.82 19.5993 166.612 19.0967 166.612 18.49C166.612 17.9007 166.82 17.4067 167.236 17.008C167.652 16.592 168.163 16.384 168.77 16.384C169.376 16.384 169.888 16.592 170.304 17.008C170.72 17.4067 170.928 17.9007 170.928 18.49C170.928 19.0967 170.72 19.5993 170.304 19.998C169.888 20.3967 169.376 20.596 168.77 20.596ZM166.794 22.52H170.746V35H166.794V22.52ZM178.846 35.39C177.39 35.39 176.28 34.9913 175.518 34.194C174.772 33.3793 174.4 32.2527 174.4 30.814V25.354H172.58V22.52H174.4V18.776H178.326V22.52H181.264V25.354H178.326V30.294C178.326 31.022 178.464 31.5507 178.742 31.88C179.019 32.192 179.513 32.348 180.224 32.348C180.796 32.348 181.342 32.2093 181.862 31.932V34.87C181.064 35.2167 180.059 35.39 178.846 35.39Z" fill="#CFFDED"/>
</svg>
