<svg width="319" height="53" viewBox="0 0 319 53" fill="none" xmlns="http://www.w3.org/2000/svg">
<path d="M16.6121 49.0239L2.64364 29.7747C1.14382 27.7078 1.11656 24.9182 2.57571 22.8224L15.6308 4.07166C16.7526 2.46047 18.5916 1.5 20.5549 1.5H297.722C299.686 1.5 301.525 2.46047 302.647 4.07165L315.702 22.8224C317.161 24.9182 317.134 27.7078 315.634 29.7747L301.665 49.0239C300.537 50.5794 298.731 51.5 296.809 51.5H21.4682C19.5463 51.5 17.7408 50.5794 16.6121 49.0239Z" fill="#033330" stroke="#F9BC07" stroke-width="3"/>
<path d="M130.491 16.326H134.339L141.931 28.078V16.326H145.883V34.5H142.061L134.443 22.748V34.5H130.491V16.326ZM155.77 34.89C153.378 34.89 151.498 34.318 150.128 33.174C148.759 32.0127 148.074 30.392 148.074 28.312C148.074 26.2493 148.681 24.62 149.894 23.424C151.125 22.228 152.876 21.63 155.146 21.63C156.637 21.63 157.902 21.9073 158.942 22.462C159.982 23.0167 160.771 23.788 161.308 24.776C161.846 25.7467 162.114 26.8473 162.114 28.078V29.664H151.818C152.096 31.2587 153.586 32.056 156.29 32.056C157.088 32.056 157.911 31.9867 158.76 31.848C159.61 31.7093 160.346 31.5187 160.97 31.276V34.032C160.364 34.292 159.584 34.5 158.63 34.656C157.677 34.812 156.724 34.89 155.77 34.89ZM158.396 27.116C158.344 26.284 158.032 25.6427 157.46 25.192C156.888 24.724 156.1 24.49 155.094 24.49C154.106 24.49 153.326 24.724 152.754 25.192C152.182 25.66 151.87 26.3013 151.818 27.116H158.396ZM169.122 28.052L164.13 22.02H168.524L171.306 25.4L174.114 22.02H178.508L173.49 28.052L178.846 34.5H174.504L171.306 30.678L168.134 34.5H163.766L169.122 28.052ZM185.609 34.89C184.153 34.89 183.044 34.4913 182.281 33.694C181.536 32.8793 181.163 31.7527 181.163 30.314V24.854H179.343V22.02H181.163V18.276H185.089V22.02H188.027V24.854H185.089V29.794C185.089 30.522 185.228 31.0507 185.505 31.38C185.783 31.692 186.277 31.848 186.987 31.848C187.559 31.848 188.105 31.7093 188.625 31.432V34.37C187.828 34.7167 186.823 34.89 185.609 34.89Z" fill="white"/>
</svg>
