<svg width="319" height="53" viewBox="0 0 319 53" fill="none" xmlns="http://www.w3.org/2000/svg">
<path d="M16.6121 49.0239L2.64364 29.7747C1.14382 27.7078 1.11656 24.9182 2.57571 22.8224L15.6308 4.07166C16.7526 2.46047 18.5916 1.5 20.5549 1.5H297.722C299.686 1.5 301.525 2.46047 302.647 4.07165L315.702 22.8224C317.161 24.9182 317.134 27.7078 315.634 29.7747L301.665 49.0239C300.537 50.5794 298.731 51.5 296.809 51.5H21.4682C19.5463 51.5 17.7408 50.5794 16.6121 49.0239Z" fill="#000F33" stroke="#F9BC07" stroke-width="3"/>
<path d="M115.991 16.826H123.869C125.931 16.826 127.535 17.346 128.679 18.386C129.84 19.4087 130.421 20.8907 130.421 22.832C130.421 24.184 130.109 25.3367 129.485 26.29C128.861 27.226 127.977 27.9107 126.833 28.344L130.291 35H126.235L123.037 28.838H119.943V35H115.991V16.826ZM123.167 25.536C124.172 25.536 124.961 25.3193 125.533 24.886C126.122 24.4527 126.417 23.768 126.417 22.832C126.417 21.844 126.131 21.1507 125.559 20.752C124.987 20.336 124.189 20.128 123.167 20.128H119.943V25.536H123.167ZM139.798 35.39C137.406 35.39 135.525 34.818 134.156 33.674C132.786 32.5127 132.102 30.892 132.102 28.812C132.102 26.7493 132.708 25.12 133.922 23.924C135.152 22.728 136.903 22.13 139.174 22.13C140.664 22.13 141.93 22.4073 142.97 22.962C144.01 23.5167 144.798 24.288 145.336 25.276C145.873 26.2467 146.142 27.3473 146.142 28.578V30.164H135.846C136.123 31.7587 137.614 32.556 140.318 32.556C141.115 32.556 141.938 32.4867 142.788 32.348C143.637 32.2093 144.374 32.0187 144.998 31.776V34.532C144.391 34.792 143.611 35 142.658 35.156C141.704 35.312 140.751 35.39 139.798 35.39ZM142.424 27.616C142.372 26.784 142.06 26.1427 141.488 25.692C140.916 25.224 140.127 24.99 139.122 24.99C138.134 24.99 137.354 25.224 136.782 25.692C136.21 26.16 135.898 26.8013 135.846 27.616H142.424ZM148.313 22.52H152.109V23.898C153.374 22.7193 154.934 22.13 156.789 22.13C158.089 22.13 159.233 22.4073 160.221 22.962C161.226 23.4993 162.006 24.2707 162.561 25.276C163.116 26.264 163.393 27.4167 163.393 28.734C163.393 30.034 163.116 31.1867 162.561 32.192C162.006 33.1973 161.226 33.986 160.221 34.558C159.233 35.1127 158.089 35.39 156.789 35.39C155.905 35.39 155.064 35.26 154.267 35C153.47 34.74 152.794 34.3673 152.239 33.882V40.694H148.313V22.52ZM155.801 32.322C156.858 32.322 157.716 31.9927 158.375 31.334C159.051 30.6753 159.389 29.8087 159.389 28.734C159.389 27.6593 159.051 26.8013 158.375 26.16C157.716 25.5187 156.858 25.198 155.801 25.198C154.986 25.198 154.258 25.4147 153.617 25.848C152.976 26.2813 152.516 26.8533 152.239 27.564V29.93C152.499 30.658 152.95 31.2387 153.591 31.672C154.25 32.1053 154.986 32.322 155.801 32.322ZM165.604 15.786H169.53V35H165.604V15.786ZM176.91 35.39C175.385 35.39 174.137 35.0087 173.166 34.246C172.213 33.466 171.736 32.4087 171.736 31.074C171.736 29.6873 172.196 28.6127 173.114 27.85C174.033 27.07 175.333 26.68 177.014 26.68C177.76 26.68 178.47 26.758 179.146 26.914C179.822 27.07 180.42 27.2867 180.94 27.564V27.252C180.94 26.472 180.663 25.9 180.108 25.536C179.554 25.172 178.704 24.99 177.56 24.99C176.035 24.99 174.631 25.276 173.348 25.848V22.988C173.903 22.7453 174.622 22.546 175.506 22.39C176.39 22.2167 177.274 22.13 178.158 22.13C180.412 22.13 182.093 22.598 183.202 23.534C184.312 24.4527 184.866 25.744 184.866 27.408V35H181.174V33.856C180.117 34.8787 178.696 35.39 176.91 35.39ZM177.976 32.79C178.618 32.79 179.198 32.6687 179.718 32.426C180.238 32.1833 180.646 31.8453 180.94 31.412V30.164C180.056 29.5747 179.086 29.28 178.028 29.28C177.3 29.28 176.737 29.436 176.338 29.748C175.957 30.0427 175.766 30.4847 175.766 31.074C175.766 31.6287 175.957 32.0533 176.338 32.348C176.72 32.6427 177.266 32.79 177.976 32.79ZM189.729 40.148C189.209 40.148 188.672 40.1133 188.117 40.044C187.58 39.9747 187.173 39.8793 186.895 39.758V36.82C187.398 37.0107 187.953 37.106 188.559 37.106C189.183 37.106 189.651 36.9673 189.963 36.69C190.293 36.4127 190.561 35.9793 190.769 35.39L191.185 34.324L185.777 22.52H189.729L193.265 31.126L196.619 22.52H200.545L195.241 35.858C194.652 37.3313 193.924 38.4147 193.057 39.108C192.191 39.8013 191.081 40.148 189.729 40.148Z" fill="white"/>
</svg>
