<svg width="25" height="23" viewBox="0 0 25 23" fill="none" xmlns="http://www.w3.org/2000/svg">
<path d="M15.9425 8.75C17.15 8.75 18.13 9.73 18.13 10.9375V16.8738C18.13 18.3659 17.5372 19.797 16.4821 20.8521C15.427 21.9072 13.9959 22.5 12.5037 22.5C11.0116 22.5 9.58052 21.9072 8.52539 20.8521C7.47026 19.797 6.8775 18.3659 6.8775 16.8738V10.9375C6.8775 9.73 7.85625 8.75 9.065 8.75H15.9425ZM6.41375 8.75C5.96208 9.29095 5.69108 9.95972 5.63875 10.6625L5.62625 10.9375V16.8738C5.62625 17.9325 5.86625 18.935 6.29375 19.83C5.88042 19.9425 5.44917 19.9992 5 20C4.34329 20 3.693 19.8706 3.08629 19.6193C2.47958 19.3679 1.92833 18.9995 1.46402 18.5351C0.999715 18.0707 0.631444 17.5193 0.380244 16.9126C0.129044 16.3058 -0.000164022 15.6555 1.56264e-07 14.9987V10.9375C2.0662e-05 10.3885 0.206464 9.8596 0.57835 9.45576C0.950236 9.05192 1.46037 8.80267 2.0075 8.7575L2.1875 8.75H6.41375ZM18.5938 8.75H22.8125C24.02 8.75 25 9.73 25 10.9375V15C25.0002 15.7665 24.8241 16.5227 24.4855 17.2103C24.1468 17.8979 23.6547 18.4984 23.047 18.9655C22.4393 19.4325 21.7323 19.7536 20.9807 19.904C20.2292 20.0543 19.4531 20.0299 18.7125 19.8325C19.0875 19.0475 19.3175 18.1825 19.3688 17.2675L19.38 16.8738V10.9375C19.38 10.1062 19.0863 9.34375 18.5938 8.75ZM12.5 0C13.4946 0 14.4484 0.395088 15.1517 1.09835C15.8549 1.80161 16.25 2.75544 16.25 3.75C16.25 4.74456 15.8549 5.69839 15.1517 6.40165C14.4484 7.10491 13.4946 7.5 12.5 7.5C11.5054 7.5 10.5516 7.10491 9.84835 6.40165C9.14509 5.69839 8.75 4.74456 8.75 3.75C8.75 2.75544 9.14509 1.80161 9.84835 1.09835C10.5516 0.395088 11.5054 0 12.5 0ZM20.625 1.25C21.4538 1.25 22.2487 1.57924 22.8347 2.16529C23.4208 2.75134 23.75 3.5462 23.75 4.375C23.75 5.2038 23.4208 5.99866 22.8347 6.58471C22.2487 7.17076 21.4538 7.5 20.625 7.5C19.7962 7.5 19.0013 7.17076 18.4153 6.58471C17.8292 5.99866 17.5 5.2038 17.5 4.375C17.5 3.5462 17.8292 2.75134 18.4153 2.16529C19.0013 1.57924 19.7962 1.25 20.625 1.25ZM4.375 1.25C5.2038 1.25 5.99866 1.57924 6.58471 2.16529C7.17076 2.75134 7.5 3.5462 7.5 4.375C7.5 5.2038 7.17076 5.99866 6.58471 6.58471C5.99866 7.17076 5.2038 7.5 4.375 7.5C3.5462 7.5 2.75134 7.17076 2.16529 6.58471C1.57924 5.99866 1.25 5.2038 1.25 4.375C1.25 3.5462 1.57924 2.75134 2.16529 2.16529C2.75134 1.57924 3.5462 1.25 4.375 1.25Z" fill="url(#paint0_linear_1993_979)"/>
<defs>
<linearGradient id="paint0_linear_1993_979" x1="12.5" y1="0" x2="12.5" y2="22.5" gradientUnits="userSpaceOnUse">
<stop stop-color="#EF441F"/>
<stop offset="1" stop-color="#FCCD06"/>
</linearGradient>
</defs>
</svg>
