<svg width="28" height="28" viewBox="0 0 28 28" fill="none" xmlns="http://www.w3.org/2000/svg">
<path d="M27.6845 17.6622L24.7692 15.0486V11.5862C24.7659 9.1935 23.7731 6.88689 21.9828 5.1124C20.1926 3.3379 17.732 2.22159 15.0769 1.97931V0H12.9231V1.97931C10.268 2.22159 7.80743 3.3379 6.01717 5.1124C4.2269 6.88689 3.23411 9.1935 3.23077 11.5862V15.0486L0.315538 17.6622C0.113562 17.8432 6.09941e-05 18.0888 0 18.3448V21.2414C0 21.4974 0.113461 21.743 0.315423 21.9241C0.517386 22.1052 0.791305 22.2069 1.07692 22.2069H8.61539V23.1724C8.61539 24.4528 9.18269 25.6807 10.1925 26.586C11.2023 27.4914 12.5719 28 14 28C15.4281 28 16.7977 27.4914 17.8075 26.586C18.8173 25.6807 19.3846 24.4528 19.3846 23.1724V22.2069H26.9231C27.2087 22.2069 27.4826 22.1052 27.6846 21.9241C27.8865 21.743 28 21.4974 28 21.2414V18.3448C27.9999 18.0888 27.8864 17.8432 27.6845 17.6622ZM17.2308 23.1724C17.2308 23.9406 16.8904 24.6774 16.2845 25.2206C15.6786 25.7638 14.8569 26.069 14 26.069C13.1431 26.069 12.3214 25.7638 11.7155 25.2206C11.1096 24.6774 10.7692 23.9406 10.7692 23.1724V22.2069H17.2308V23.1724Z" fill="url(#paint0_linear_1993_983)"/>
<defs>
<linearGradient id="paint0_linear_1993_983" x1="14" y1="34" x2="14" y2="-6.2" gradientUnits="userSpaceOnUse">
<stop stop-color="#19284E"/>
<stop offset="0.155" stop-color="#FDD405"/>
<stop offset="0.81" stop-color="#EE2B22"/>
<stop offset="0.96" stop-color="#F9BC07"/>
</linearGradient>
</defs>
</svg>
