<svg width="23" height="26" viewBox="0 0 23 26" fill="none" xmlns="http://www.w3.org/2000/svg">
<path d="M8.5725 19.6538C8.12916 20.1418 7.80926 20.729 7.63962 21.3661C7.46998 22.0032 7.45553 22.6718 7.5975 23.3156C2.79 22.6369 0 19.245 0 15.9375V15C0 14.2541 0.296316 13.5387 0.823762 13.0113C1.35121 12.4838 2.06658 12.1875 2.8125 12.1875H14.1056C14.1431 13.0931 14.5181 13.9706 15.1969 14.6344L16.1681 15.5831C15.9755 16.4154 15.5045 17.1569 14.8331 17.685L13.3613 17.3363C12.6852 17.1774 11.9788 17.2028 11.316 17.41C10.6531 17.6171 10.0579 17.9982 9.5925 18.5138L8.5725 19.6538ZM9.375 0C10.7425 0 12.054 0.543246 13.021 1.51023C13.988 2.47722 14.5312 3.78873 14.5312 5.15625C14.5312 6.52377 13.988 7.83529 13.021 8.80227C12.054 9.76925 10.7425 10.3125 9.375 10.3125C8.00748 10.3125 6.69596 9.76925 5.72898 8.80227C4.762 7.83529 4.21875 6.52377 4.21875 5.15625C4.21875 3.78873 4.762 2.47722 5.72898 1.51023C6.69596 0.543246 8.00748 0 9.375 0ZM16.095 11.4019L16.6256 9.99562C17.1094 8.72062 18.6169 8.09062 19.8881 8.6325L20.6156 8.94375C21.5025 9.3225 22.2375 10.0087 22.3913 10.9312C23.2481 16.0406 18.8138 23.3081 13.71 25.1625C12.7875 25.4963 11.79 25.2375 11.0006 24.7013L10.3519 24.2606C10.0855 24.0812 9.86127 23.8462 9.69458 23.5717C9.52789 23.2972 9.42274 22.9898 9.38637 22.6707C9.35001 22.3517 9.3833 22.0285 9.48396 21.7236C9.58461 21.4186 9.75022 21.1391 9.96938 20.9044L10.9913 19.7663C11.2313 19.5019 11.5375 19.3064 11.8783 19.2C12.2191 19.0935 12.5822 19.0799 12.93 19.1606L15.2269 19.7044C17.0481 18.5669 18.0244 16.9669 18.1556 14.9044L16.5094 13.2919C16.2635 13.0516 16.0933 12.7446 16.0196 12.4088C15.946 12.073 15.9722 11.723 16.095 11.4019Z" fill="url(#paint0_linear_1993_967)"/>
<defs>
<linearGradient id="paint0_linear_1993_967" x1="11.249" y1="0" x2="11.249" y2="25.3115" gradientUnits="userSpaceOnUse">
<stop stop-color="#EF441F"/>
<stop offset="1" stop-color="#FCCD06"/>
</linearGradient>
</defs>
</svg>
