<svg width="30" height="30" viewBox="0 0 30 30" fill="none" xmlns="http://www.w3.org/2000/svg">
<path fill-rule="evenodd" clip-rule="evenodd" d="M11.8837 2.50995C11 3.2937 11 4.72745 11 7.5937V21.4037C11 24.27 11 25.7037 11.8837 26.4875C12.7675 27.2712 14.1187 27.0362 16.8212 26.565L19.7338 26.0575C22.7263 25.535 24.2225 25.2737 25.1112 24.1762C26 23.0775 26 21.49 26 18.3137V10.6837C26 7.5087 26 5.9212 25.1125 4.82245C24.2225 3.72495 22.725 3.4637 19.7325 2.94245L16.8225 2.4337C14.12 1.96245 12.7688 1.72745 11.885 2.5112M14.75 12.21C15.2675 12.21 15.6875 12.6487 15.6875 13.19V15.8075C15.6875 16.3487 15.2675 16.7875 14.75 16.7875C14.2325 16.7875 13.8125 16.3487 13.8125 15.8075V13.19C13.8125 12.6487 14.2325 12.21 14.75 12.21Z" fill="#F9BC07"/>
<path d="M8 5C5.73697 5.0038 4.55707 5.0608 3.80493 5.9272C3 6.8544 3 8.34653 3 11.3333V17.6667C3 20.6522 3 22.1443 3.80493 23.0728C4.55707 23.9379 5.73697 23.9962 8 24C7.94832 23.2096 7.94832 22.2976 7.94832 21.3109V7.68913C7.94832 6.70113 7.94832 5.78913 8 5Z" fill="#F9BC07"/>
</svg>
