<svg width="34" height="34" viewBox="0 0 34 34" fill="none" xmlns="http://www.w3.org/2000/svg">
<path d="M26.9702 5.22188C27.104 5.0867 27.2086 4.9277 27.278 4.75393C27.3474 4.58017 27.3803 4.39505 27.3748 4.20915C27.3693 4.02325 27.3255 3.8402 27.2459 3.67046C27.1663 3.50072 27.0525 3.34762 26.9109 3.21988C26.7694 3.09215 26.6028 2.99229 26.4209 2.92601C26.2389 2.85972 26.045 2.82832 25.8503 2.83357C25.6556 2.83883 25.4639 2.88066 25.2862 2.95666C25.1084 3.03266 24.9481 3.14135 24.8143 3.27652L12.211 16.019C11.9507 16.2819 11.8057 16.63 11.8057 16.9917C11.8057 17.3535 11.9507 17.7015 12.211 17.9644L24.8143 30.7083C24.9472 30.8465 25.1075 30.958 25.2859 31.0365C25.4643 31.115 25.6573 31.1588 25.8536 31.1655C26.0499 31.1721 26.2456 31.1415 26.4294 31.0753C26.6132 31.0091 26.7814 30.9087 26.9243 30.7799C27.0671 30.6511 27.1817 30.4966 27.2614 30.3251C27.3411 30.1537 27.3844 29.9689 27.3886 29.7813C27.3929 29.5938 27.3581 29.4074 27.2863 29.2328C27.2145 29.0582 27.107 28.899 26.9702 28.7644L15.3277 16.9917L26.9702 5.22188Z" fill="#757575"/>
<path d="M5.66699 31.1663L5.66699 2.83301" stroke="#757575" stroke-width="3" stroke-linecap="round" stroke-linejoin="round"/>
</svg>
